<mxfile host="app.diagrams.net" modified="2023-02-05T15:20:26.524Z" agent="5.0 (Windows NT 10.0; Win64; x64) AppleWebKit/537.36 (KHTML, like Gecko) Chrome/109.0.0.0 Safari/537.36" etag="q-Xc_PlLjfkM7eUaGi9P" version="20.5.3" type="github">
  <diagram id="R2lEEEUBdFMjLlhIrx00" name="Page-1">
    <mxGraphModel dx="2694" dy="1279" grid="1" gridSize="10" guides="1" tooltips="1" connect="1" arrows="1" fold="1" page="1" pageScale="1" pageWidth="850" pageHeight="1100" math="0" shadow="0" extFonts="Permanent Marker^https://fonts.googleapis.com/css?family=Permanent+Marker">
      <root>
        <mxCell id="0" />
        <mxCell id="1" parent="0" />
        <mxCell id="oHr5Q5GF4CuMxhJSvQlE-47" value="Employee" style="swimlane;html=1;fontStyle=0;childLayout=stackLayout;horizontal=1;startSize=26;fillColor=#e0e0e0;horizontalStack=0;resizeParent=1;resizeLast=0;collapsible=1;marginBottom=0;swimlaneFillColor=#ffffff;align=center;rounded=0;shadow=0;comic=0;labelBackgroundColor=none;strokeWidth=1;fontFamily=Verdana;fontSize=14" vertex="1" parent="1">
          <mxGeometry x="410" y="240" width="160" height="200" as="geometry" />
        </mxCell>
        <mxCell id="oHr5Q5GF4CuMxhJSvQlE-48" value="id" style="shape=partialRectangle;top=0;left=0;right=0;bottom=0;html=1;align=left;verticalAlign=middle;fillColor=none;spacingLeft=60;spacingRight=4;whiteSpace=wrap;overflow=hidden;rotatable=0;points=[[0,0.5],[1,0.5]];portConstraint=eastwest;dropTarget=0;fontStyle=5;fontSize=16;" vertex="1" parent="oHr5Q5GF4CuMxhJSvQlE-47">
          <mxGeometry y="26" width="160" height="30" as="geometry" />
        </mxCell>
        <mxCell id="oHr5Q5GF4CuMxhJSvQlE-49" value="PK,FK1" style="shape=partialRectangle;fontStyle=1;top=0;left=0;bottom=0;html=1;fillColor=none;align=left;verticalAlign=middle;spacingLeft=4;spacingRight=4;whiteSpace=wrap;overflow=hidden;rotatable=0;points=[];portConstraint=eastwest;part=1;fontSize=16;" vertex="1" connectable="0" parent="oHr5Q5GF4CuMxhJSvQlE-48">
          <mxGeometry width="56" height="30" as="geometry" />
        </mxCell>
        <mxCell id="oHr5Q5GF4CuMxhJSvQlE-50" value="dept_no" style="shape=partialRectangle;top=0;left=0;right=0;bottom=1;html=1;align=left;verticalAlign=middle;fillColor=none;spacingLeft=60;spacingRight=4;whiteSpace=wrap;overflow=hidden;rotatable=0;points=[[0,0.5],[1,0.5]];portConstraint=eastwest;dropTarget=0;fontStyle=5;fontSize=16;" vertex="1" parent="oHr5Q5GF4CuMxhJSvQlE-47">
          <mxGeometry y="56" width="160" height="30" as="geometry" />
        </mxCell>
        <mxCell id="oHr5Q5GF4CuMxhJSvQlE-51" value="PK,FK2" style="shape=partialRectangle;fontStyle=1;top=0;left=0;bottom=0;html=1;fillColor=none;align=left;verticalAlign=middle;spacingLeft=4;spacingRight=4;whiteSpace=wrap;overflow=hidden;rotatable=0;points=[];portConstraint=eastwest;part=1;fontSize=16;" vertex="1" connectable="0" parent="oHr5Q5GF4CuMxhJSvQlE-50">
          <mxGeometry width="56" height="30" as="geometry" />
        </mxCell>
        <mxCell id="oHr5Q5GF4CuMxhJSvQlE-52" value="name&lt;br&gt;address&lt;br&gt;sex&lt;br&gt;birthdate" style="shape=partialRectangle;top=0;left=0;right=0;bottom=0;html=1;align=left;verticalAlign=top;fillColor=none;spacingLeft=60;spacingRight=4;whiteSpace=wrap;overflow=hidden;rotatable=0;points=[[0,0.5],[1,0.5]];portConstraint=eastwest;dropTarget=0;fontSize=16;" vertex="1" parent="oHr5Q5GF4CuMxhJSvQlE-47">
          <mxGeometry y="86" width="160" height="114" as="geometry" />
        </mxCell>
        <mxCell id="oHr5Q5GF4CuMxhJSvQlE-53" value="" style="shape=partialRectangle;top=0;left=0;bottom=0;html=1;fillColor=none;align=left;verticalAlign=top;spacingLeft=4;spacingRight=4;whiteSpace=wrap;overflow=hidden;rotatable=0;points=[];portConstraint=eastwest;part=1;fontSize=16;" vertex="1" connectable="0" parent="oHr5Q5GF4CuMxhJSvQlE-52">
          <mxGeometry width="56" height="114.00000000000001" as="geometry" />
        </mxCell>
        <mxCell id="oHr5Q5GF4CuMxhJSvQlE-54" value="Depedent" style="swimlane;html=1;fontStyle=0;childLayout=stackLayout;horizontal=1;startSize=26;fillColor=#e0e0e0;horizontalStack=0;resizeParent=1;resizeLast=0;collapsible=1;marginBottom=0;swimlaneFillColor=#ffffff;align=center;rounded=0;shadow=0;comic=0;labelBackgroundColor=none;strokeWidth=1;fontFamily=Verdana;fontSize=14;swimlaneLine=1;" vertex="1" parent="1">
          <mxGeometry x="680" y="280" width="160" height="170" as="geometry" />
        </mxCell>
        <mxCell id="oHr5Q5GF4CuMxhJSvQlE-55" value="name" style="shape=partialRectangle;top=0;left=0;right=0;bottom=1;html=1;align=left;verticalAlign=middle;fillColor=none;spacingLeft=34;spacingRight=4;whiteSpace=wrap;overflow=hidden;rotatable=0;points=[[0,0.5],[1,0.5]];portConstraint=eastwest;dropTarget=0;fontStyle=5;fontSize=16;" vertex="1" parent="oHr5Q5GF4CuMxhJSvQlE-54">
          <mxGeometry y="26" width="160" height="30" as="geometry" />
        </mxCell>
        <mxCell id="oHr5Q5GF4CuMxhJSvQlE-56" value="PK" style="shape=partialRectangle;top=0;left=0;bottom=0;html=1;fillColor=none;align=left;verticalAlign=middle;spacingLeft=4;spacingRight=4;whiteSpace=wrap;overflow=hidden;rotatable=0;points=[];portConstraint=eastwest;part=1;fontSize=16;" vertex="1" connectable="0" parent="oHr5Q5GF4CuMxhJSvQlE-55">
          <mxGeometry width="30" height="30" as="geometry" />
        </mxCell>
        <mxCell id="oHr5Q5GF4CuMxhJSvQlE-57" value="sex" style="shape=partialRectangle;top=0;left=0;right=0;bottom=0;html=1;align=left;verticalAlign=top;fillColor=none;spacingLeft=34;spacingRight=4;whiteSpace=wrap;overflow=hidden;rotatable=0;points=[[0,0.5],[1,0.5]];portConstraint=eastwest;dropTarget=0;fontSize=16;" vertex="1" parent="oHr5Q5GF4CuMxhJSvQlE-54">
          <mxGeometry y="56" width="160" height="26" as="geometry" />
        </mxCell>
        <mxCell id="oHr5Q5GF4CuMxhJSvQlE-58" value="" style="shape=partialRectangle;top=0;left=0;bottom=0;html=1;fillColor=none;align=left;verticalAlign=top;spacingLeft=4;spacingRight=4;whiteSpace=wrap;overflow=hidden;rotatable=0;points=[];portConstraint=eastwest;part=1;fontSize=16;" vertex="1" connectable="0" parent="oHr5Q5GF4CuMxhJSvQlE-57">
          <mxGeometry width="30" height="26" as="geometry" />
        </mxCell>
        <mxCell id="oHr5Q5GF4CuMxhJSvQlE-59" value="birtjdate" style="shape=partialRectangle;top=0;left=0;right=0;bottom=0;html=1;align=left;verticalAlign=top;fillColor=none;spacingLeft=34;spacingRight=4;whiteSpace=wrap;overflow=hidden;rotatable=0;points=[[0,0.5],[1,0.5]];portConstraint=eastwest;dropTarget=0;fontSize=16;" vertex="1" parent="oHr5Q5GF4CuMxhJSvQlE-54">
          <mxGeometry y="82" width="160" height="26" as="geometry" />
        </mxCell>
        <mxCell id="oHr5Q5GF4CuMxhJSvQlE-60" value="" style="shape=partialRectangle;top=0;left=0;bottom=0;html=1;fillColor=none;align=left;verticalAlign=top;spacingLeft=4;spacingRight=4;whiteSpace=wrap;overflow=hidden;rotatable=0;points=[];portConstraint=eastwest;part=1;fontSize=16;" vertex="1" connectable="0" parent="oHr5Q5GF4CuMxhJSvQlE-59">
          <mxGeometry width="30" height="26" as="geometry" />
        </mxCell>
        <mxCell id="oHr5Q5GF4CuMxhJSvQlE-61" value="relationship" style="shape=partialRectangle;top=0;left=0;right=0;bottom=0;html=1;align=left;verticalAlign=top;fillColor=none;spacingLeft=34;spacingRight=4;whiteSpace=wrap;overflow=hidden;rotatable=0;points=[[0,0.5],[1,0.5]];portConstraint=eastwest;dropTarget=0;fontSize=16;" vertex="1" parent="oHr5Q5GF4CuMxhJSvQlE-54">
          <mxGeometry y="108" width="160" height="26" as="geometry" />
        </mxCell>
        <mxCell id="oHr5Q5GF4CuMxhJSvQlE-62" value="" style="shape=partialRectangle;top=0;left=0;bottom=0;html=1;fillColor=none;align=left;verticalAlign=top;spacingLeft=4;spacingRight=4;whiteSpace=wrap;overflow=hidden;rotatable=0;points=[];portConstraint=eastwest;part=1;fontSize=16;" vertex="1" connectable="0" parent="oHr5Q5GF4CuMxhJSvQlE-61">
          <mxGeometry width="30" height="26" as="geometry" />
        </mxCell>
        <mxCell id="oHr5Q5GF4CuMxhJSvQlE-136" value="" style="shape=partialRectangle;top=0;left=0;right=0;bottom=0;html=1;align=left;verticalAlign=top;fillColor=none;spacingLeft=34;spacingRight=4;whiteSpace=wrap;overflow=hidden;rotatable=0;points=[[0,0.5],[1,0.5]];portConstraint=eastwest;dropTarget=0;fontSize=16;" vertex="1" parent="oHr5Q5GF4CuMxhJSvQlE-54">
          <mxGeometry y="134" width="160" height="26" as="geometry" />
        </mxCell>
        <mxCell id="oHr5Q5GF4CuMxhJSvQlE-137" value="" style="shape=partialRectangle;top=0;left=0;bottom=0;html=1;fillColor=none;align=left;verticalAlign=top;spacingLeft=4;spacingRight=4;whiteSpace=wrap;overflow=hidden;rotatable=0;points=[];portConstraint=eastwest;part=1;fontSize=16;" vertex="1" connectable="0" parent="oHr5Q5GF4CuMxhJSvQlE-136">
          <mxGeometry width="30" height="26" as="geometry" />
        </mxCell>
        <mxCell id="oHr5Q5GF4CuMxhJSvQlE-63" value="" style="shape=partialRectangle;top=0;left=0;right=0;bottom=0;html=1;align=left;verticalAlign=top;fillColor=none;spacingLeft=34;spacingRight=4;whiteSpace=wrap;overflow=hidden;rotatable=0;points=[[0,0.5],[1,0.5]];portConstraint=eastwest;dropTarget=0;fontSize=16;" vertex="1" parent="oHr5Q5GF4CuMxhJSvQlE-54">
          <mxGeometry y="160" width="160" height="10" as="geometry" />
        </mxCell>
        <mxCell id="oHr5Q5GF4CuMxhJSvQlE-64" value="" style="shape=partialRectangle;top=0;left=0;bottom=0;html=1;fillColor=none;align=left;verticalAlign=top;spacingLeft=4;spacingRight=4;whiteSpace=wrap;overflow=hidden;rotatable=0;points=[];portConstraint=eastwest;part=1;fontSize=16;" vertex="1" connectable="0" parent="oHr5Q5GF4CuMxhJSvQlE-63">
          <mxGeometry width="30" height="10" as="geometry" />
        </mxCell>
        <mxCell id="oHr5Q5GF4CuMxhJSvQlE-65" value="Customer" style="swimlane;html=1;fontStyle=0;childLayout=stackLayout;horizontal=1;startSize=26;fillColor=#e0e0e0;horizontalStack=0;resizeParent=1;resizeLast=0;collapsible=1;marginBottom=0;swimlaneFillColor=#ffffff;align=center;rounded=0;shadow=0;comic=0;labelBackgroundColor=none;strokeWidth=1;fontFamily=Verdana;fontSize=14" vertex="1" parent="1">
          <mxGeometry x="320" y="570" width="160" height="144" as="geometry" />
        </mxCell>
        <mxCell id="oHr5Q5GF4CuMxhJSvQlE-66" value="id" style="shape=partialRectangle;top=0;left=0;right=0;bottom=1;html=1;align=left;verticalAlign=middle;fillColor=none;spacingLeft=34;spacingRight=4;whiteSpace=wrap;overflow=hidden;rotatable=0;points=[[0,0.5],[1,0.5]];portConstraint=eastwest;dropTarget=0;fontStyle=5;fontSize=16;" vertex="1" parent="oHr5Q5GF4CuMxhJSvQlE-65">
          <mxGeometry y="26" width="160" height="30" as="geometry" />
        </mxCell>
        <mxCell id="oHr5Q5GF4CuMxhJSvQlE-67" value="PK" style="shape=partialRectangle;top=0;left=0;bottom=0;html=1;fillColor=none;align=left;verticalAlign=middle;spacingLeft=4;spacingRight=4;whiteSpace=wrap;overflow=hidden;rotatable=0;points=[];portConstraint=eastwest;part=1;fontSize=16;" vertex="1" connectable="0" parent="oHr5Q5GF4CuMxhJSvQlE-66">
          <mxGeometry width="30" height="30" as="geometry" />
        </mxCell>
        <mxCell id="oHr5Q5GF4CuMxhJSvQlE-68" value="email" style="shape=partialRectangle;top=0;left=0;right=0;bottom=0;html=1;align=left;verticalAlign=top;fillColor=none;spacingLeft=34;spacingRight=4;whiteSpace=wrap;overflow=hidden;rotatable=0;points=[[0,0.5],[1,0.5]];portConstraint=eastwest;dropTarget=0;fontSize=16;" vertex="1" parent="oHr5Q5GF4CuMxhJSvQlE-65">
          <mxGeometry y="56" width="160" height="26" as="geometry" />
        </mxCell>
        <mxCell id="oHr5Q5GF4CuMxhJSvQlE-69" value="" style="shape=partialRectangle;top=0;left=0;bottom=0;html=1;fillColor=none;align=left;verticalAlign=top;spacingLeft=4;spacingRight=4;whiteSpace=wrap;overflow=hidden;rotatable=0;points=[];portConstraint=eastwest;part=1;fontSize=16;" vertex="1" connectable="0" parent="oHr5Q5GF4CuMxhJSvQlE-68">
          <mxGeometry width="30" height="26" as="geometry" />
        </mxCell>
        <mxCell id="oHr5Q5GF4CuMxhJSvQlE-70" value="birthdate" style="shape=partialRectangle;top=0;left=0;right=0;bottom=0;html=1;align=left;verticalAlign=top;fillColor=none;spacingLeft=34;spacingRight=4;whiteSpace=wrap;overflow=hidden;rotatable=0;points=[[0,0.5],[1,0.5]];portConstraint=eastwest;dropTarget=0;fontSize=16;" vertex="1" parent="oHr5Q5GF4CuMxhJSvQlE-65">
          <mxGeometry y="82" width="160" height="26" as="geometry" />
        </mxCell>
        <mxCell id="oHr5Q5GF4CuMxhJSvQlE-71" value="" style="shape=partialRectangle;top=0;left=0;bottom=0;html=1;fillColor=none;align=left;verticalAlign=top;spacingLeft=4;spacingRight=4;whiteSpace=wrap;overflow=hidden;rotatable=0;points=[];portConstraint=eastwest;part=1;fontSize=16;" vertex="1" connectable="0" parent="oHr5Q5GF4CuMxhJSvQlE-70">
          <mxGeometry width="30" height="26" as="geometry" />
        </mxCell>
        <mxCell id="oHr5Q5GF4CuMxhJSvQlE-72" value="name" style="shape=partialRectangle;top=0;left=0;right=0;bottom=0;html=1;align=left;verticalAlign=top;fillColor=none;spacingLeft=34;spacingRight=4;whiteSpace=wrap;overflow=hidden;rotatable=0;points=[[0,0.5],[1,0.5]];portConstraint=eastwest;dropTarget=0;fontSize=16;" vertex="1" parent="oHr5Q5GF4CuMxhJSvQlE-65">
          <mxGeometry y="108" width="160" height="26" as="geometry" />
        </mxCell>
        <mxCell id="oHr5Q5GF4CuMxhJSvQlE-73" value="" style="shape=partialRectangle;top=0;left=0;bottom=0;html=1;fillColor=none;align=left;verticalAlign=top;spacingLeft=4;spacingRight=4;whiteSpace=wrap;overflow=hidden;rotatable=0;points=[];portConstraint=eastwest;part=1;fontSize=16;" vertex="1" connectable="0" parent="oHr5Q5GF4CuMxhJSvQlE-72">
          <mxGeometry width="30" height="26" as="geometry" />
        </mxCell>
        <mxCell id="oHr5Q5GF4CuMxhJSvQlE-74" value="" style="shape=partialRectangle;top=0;left=0;right=0;bottom=0;html=1;align=left;verticalAlign=top;fillColor=none;spacingLeft=34;spacingRight=4;whiteSpace=wrap;overflow=hidden;rotatable=0;points=[[0,0.5],[1,0.5]];portConstraint=eastwest;dropTarget=0;fontSize=16;" vertex="1" parent="oHr5Q5GF4CuMxhJSvQlE-65">
          <mxGeometry y="134" width="160" height="10" as="geometry" />
        </mxCell>
        <mxCell id="oHr5Q5GF4CuMxhJSvQlE-75" value="" style="shape=partialRectangle;top=0;left=0;bottom=0;html=1;fillColor=none;align=left;verticalAlign=top;spacingLeft=4;spacingRight=4;whiteSpace=wrap;overflow=hidden;rotatable=0;points=[];portConstraint=eastwest;part=1;fontSize=16;" vertex="1" connectable="0" parent="oHr5Q5GF4CuMxhJSvQlE-74">
          <mxGeometry width="30" height="10" as="geometry" />
        </mxCell>
        <mxCell id="oHr5Q5GF4CuMxhJSvQlE-76" value="Table" style="swimlane;html=1;fontStyle=0;childLayout=stackLayout;horizontal=1;startSize=26;fillColor=#e0e0e0;horizontalStack=0;resizeParent=1;resizeLast=0;collapsible=1;marginBottom=0;swimlaneFillColor=#ffffff;align=center;rounded=0;shadow=0;comic=0;labelBackgroundColor=none;strokeWidth=1;fontFamily=Verdana;fontSize=14" vertex="1" parent="1">
          <mxGeometry x="660" y="1000" width="160" height="144" as="geometry" />
        </mxCell>
        <mxCell id="oHr5Q5GF4CuMxhJSvQlE-77" value="uniqueId" style="shape=partialRectangle;top=0;left=0;right=0;bottom=1;html=1;align=left;verticalAlign=middle;fillColor=none;spacingLeft=34;spacingRight=4;whiteSpace=wrap;overflow=hidden;rotatable=0;points=[[0,0.5],[1,0.5]];portConstraint=eastwest;dropTarget=0;fontStyle=5;fontSize=16;" vertex="1" parent="oHr5Q5GF4CuMxhJSvQlE-76">
          <mxGeometry y="26" width="160" height="30" as="geometry" />
        </mxCell>
        <mxCell id="oHr5Q5GF4CuMxhJSvQlE-78" value="PK" style="shape=partialRectangle;top=0;left=0;bottom=0;html=1;fillColor=none;align=left;verticalAlign=middle;spacingLeft=4;spacingRight=4;whiteSpace=wrap;overflow=hidden;rotatable=0;points=[];portConstraint=eastwest;part=1;fontSize=16;" vertex="1" connectable="0" parent="oHr5Q5GF4CuMxhJSvQlE-77">
          <mxGeometry width="30" height="30" as="geometry" />
        </mxCell>
        <mxCell id="oHr5Q5GF4CuMxhJSvQlE-79" value="row 1" style="shape=partialRectangle;top=0;left=0;right=0;bottom=0;html=1;align=left;verticalAlign=top;fillColor=none;spacingLeft=34;spacingRight=4;whiteSpace=wrap;overflow=hidden;rotatable=0;points=[[0,0.5],[1,0.5]];portConstraint=eastwest;dropTarget=0;fontSize=16;" vertex="1" parent="oHr5Q5GF4CuMxhJSvQlE-76">
          <mxGeometry y="56" width="160" height="26" as="geometry" />
        </mxCell>
        <mxCell id="oHr5Q5GF4CuMxhJSvQlE-80" value="" style="shape=partialRectangle;top=0;left=0;bottom=0;html=1;fillColor=none;align=left;verticalAlign=top;spacingLeft=4;spacingRight=4;whiteSpace=wrap;overflow=hidden;rotatable=0;points=[];portConstraint=eastwest;part=1;fontSize=16;" vertex="1" connectable="0" parent="oHr5Q5GF4CuMxhJSvQlE-79">
          <mxGeometry width="30" height="26" as="geometry" />
        </mxCell>
        <mxCell id="oHr5Q5GF4CuMxhJSvQlE-81" value="row 2" style="shape=partialRectangle;top=0;left=0;right=0;bottom=0;html=1;align=left;verticalAlign=top;fillColor=none;spacingLeft=34;spacingRight=4;whiteSpace=wrap;overflow=hidden;rotatable=0;points=[[0,0.5],[1,0.5]];portConstraint=eastwest;dropTarget=0;fontSize=16;" vertex="1" parent="oHr5Q5GF4CuMxhJSvQlE-76">
          <mxGeometry y="82" width="160" height="26" as="geometry" />
        </mxCell>
        <mxCell id="oHr5Q5GF4CuMxhJSvQlE-82" value="" style="shape=partialRectangle;top=0;left=0;bottom=0;html=1;fillColor=none;align=left;verticalAlign=top;spacingLeft=4;spacingRight=4;whiteSpace=wrap;overflow=hidden;rotatable=0;points=[];portConstraint=eastwest;part=1;fontSize=16;" vertex="1" connectable="0" parent="oHr5Q5GF4CuMxhJSvQlE-81">
          <mxGeometry width="30" height="26" as="geometry" />
        </mxCell>
        <mxCell id="oHr5Q5GF4CuMxhJSvQlE-83" value="row 3" style="shape=partialRectangle;top=0;left=0;right=0;bottom=0;html=1;align=left;verticalAlign=top;fillColor=none;spacingLeft=34;spacingRight=4;whiteSpace=wrap;overflow=hidden;rotatable=0;points=[[0,0.5],[1,0.5]];portConstraint=eastwest;dropTarget=0;fontSize=16;" vertex="1" parent="oHr5Q5GF4CuMxhJSvQlE-76">
          <mxGeometry y="108" width="160" height="26" as="geometry" />
        </mxCell>
        <mxCell id="oHr5Q5GF4CuMxhJSvQlE-84" value="" style="shape=partialRectangle;top=0;left=0;bottom=0;html=1;fillColor=none;align=left;verticalAlign=top;spacingLeft=4;spacingRight=4;whiteSpace=wrap;overflow=hidden;rotatable=0;points=[];portConstraint=eastwest;part=1;fontSize=16;" vertex="1" connectable="0" parent="oHr5Q5GF4CuMxhJSvQlE-83">
          <mxGeometry width="30" height="26" as="geometry" />
        </mxCell>
        <mxCell id="oHr5Q5GF4CuMxhJSvQlE-85" value="" style="shape=partialRectangle;top=0;left=0;right=0;bottom=0;html=1;align=left;verticalAlign=top;fillColor=none;spacingLeft=34;spacingRight=4;whiteSpace=wrap;overflow=hidden;rotatable=0;points=[[0,0.5],[1,0.5]];portConstraint=eastwest;dropTarget=0;fontSize=16;" vertex="1" parent="oHr5Q5GF4CuMxhJSvQlE-76">
          <mxGeometry y="134" width="160" height="10" as="geometry" />
        </mxCell>
        <mxCell id="oHr5Q5GF4CuMxhJSvQlE-86" value="" style="shape=partialRectangle;top=0;left=0;bottom=0;html=1;fillColor=none;align=left;verticalAlign=top;spacingLeft=4;spacingRight=4;whiteSpace=wrap;overflow=hidden;rotatable=0;points=[];portConstraint=eastwest;part=1;fontSize=16;" vertex="1" connectable="0" parent="oHr5Q5GF4CuMxhJSvQlE-85">
          <mxGeometry width="30" height="10" as="geometry" />
        </mxCell>
        <mxCell id="oHr5Q5GF4CuMxhJSvQlE-87" value="salesperson" style="swimlane;html=1;fontStyle=0;childLayout=stackLayout;horizontal=1;startSize=26;fillColor=#e0e0e0;horizontalStack=0;resizeParent=1;resizeLast=0;collapsible=1;marginBottom=0;swimlaneFillColor=#ffffff;align=center;rounded=0;shadow=0;comic=0;labelBackgroundColor=none;strokeWidth=1;fontFamily=Verdana;fontSize=14" vertex="1" parent="1">
          <mxGeometry x="1270" y="586" width="180" height="112" as="geometry" />
        </mxCell>
        <mxCell id="oHr5Q5GF4CuMxhJSvQlE-88" value="row 1" style="shape=partialRectangle;top=0;left=0;right=0;bottom=0;html=1;align=left;verticalAlign=middle;fillColor=none;spacingLeft=60;spacingRight=4;whiteSpace=wrap;overflow=hidden;rotatable=0;points=[[0,0.5],[1,0.5]];portConstraint=eastwest;dropTarget=0;fontStyle=5;fontSize=16;" vertex="1" parent="oHr5Q5GF4CuMxhJSvQlE-87">
          <mxGeometry y="26" width="180" height="30" as="geometry" />
        </mxCell>
        <mxCell id="oHr5Q5GF4CuMxhJSvQlE-89" value="PK,FK1" style="shape=partialRectangle;fontStyle=1;top=0;left=0;bottom=0;html=1;fillColor=none;align=left;verticalAlign=middle;spacingLeft=4;spacingRight=4;whiteSpace=wrap;overflow=hidden;rotatable=0;points=[];portConstraint=eastwest;part=1;fontSize=16;" vertex="1" connectable="0" parent="oHr5Q5GF4CuMxhJSvQlE-88">
          <mxGeometry width="56" height="30" as="geometry" />
        </mxCell>
        <mxCell id="oHr5Q5GF4CuMxhJSvQlE-90" value="row 2" style="shape=partialRectangle;top=0;left=0;right=0;bottom=1;html=1;align=left;verticalAlign=middle;fillColor=none;spacingLeft=60;spacingRight=4;whiteSpace=wrap;overflow=hidden;rotatable=0;points=[[0,0.5],[1,0.5]];portConstraint=eastwest;dropTarget=0;fontStyle=5;fontSize=16;" vertex="1" parent="oHr5Q5GF4CuMxhJSvQlE-87">
          <mxGeometry y="56" width="180" height="30" as="geometry" />
        </mxCell>
        <mxCell id="oHr5Q5GF4CuMxhJSvQlE-91" value="PK,FK2" style="shape=partialRectangle;fontStyle=1;top=0;left=0;bottom=0;html=1;fillColor=none;align=left;verticalAlign=middle;spacingLeft=4;spacingRight=4;whiteSpace=wrap;overflow=hidden;rotatable=0;points=[];portConstraint=eastwest;part=1;fontSize=16;" vertex="1" connectable="0" parent="oHr5Q5GF4CuMxhJSvQlE-90">
          <mxGeometry width="63" height="30" as="geometry" />
        </mxCell>
        <mxCell id="oHr5Q5GF4CuMxhJSvQlE-92" value="commision_rate" style="shape=partialRectangle;top=0;left=0;right=0;bottom=0;html=1;align=left;verticalAlign=top;fillColor=none;spacingLeft=60;spacingRight=4;whiteSpace=wrap;overflow=hidden;rotatable=0;points=[[0,0.5],[1,0.5]];portConstraint=eastwest;dropTarget=0;fontSize=16;" vertex="1" parent="oHr5Q5GF4CuMxhJSvQlE-87">
          <mxGeometry y="86" width="180" height="26" as="geometry" />
        </mxCell>
        <mxCell id="oHr5Q5GF4CuMxhJSvQlE-93" value="" style="shape=partialRectangle;top=0;left=0;bottom=0;html=1;fillColor=none;align=left;verticalAlign=top;spacingLeft=4;spacingRight=4;whiteSpace=wrap;overflow=hidden;rotatable=0;points=[];portConstraint=eastwest;part=1;fontSize=16;" vertex="1" connectable="0" parent="oHr5Q5GF4CuMxhJSvQlE-92">
          <mxGeometry width="56" height="26" as="geometry" />
        </mxCell>
        <mxCell id="oHr5Q5GF4CuMxhJSvQlE-94" value="sector" style="swimlane;html=1;fontStyle=0;childLayout=stackLayout;horizontal=1;startSize=26;fillColor=#e0e0e0;horizontalStack=0;resizeParent=1;resizeLast=0;collapsible=1;marginBottom=0;swimlaneFillColor=#ffffff;align=center;rounded=0;shadow=0;comic=0;labelBackgroundColor=none;strokeWidth=1;fontFamily=Verdana;fontSize=14" vertex="1" parent="1">
          <mxGeometry x="70" y="840" width="190" height="160" as="geometry" />
        </mxCell>
        <mxCell id="oHr5Q5GF4CuMxhJSvQlE-95" value="code" style="shape=partialRectangle;top=0;left=0;right=0;bottom=0;html=1;align=left;verticalAlign=middle;fillColor=none;spacingLeft=60;spacingRight=4;whiteSpace=wrap;overflow=hidden;rotatable=0;points=[[0,0.5],[1,0.5]];portConstraint=eastwest;dropTarget=0;fontStyle=5;fontSize=16;" vertex="1" parent="oHr5Q5GF4CuMxhJSvQlE-94">
          <mxGeometry y="26" width="190" height="30" as="geometry" />
        </mxCell>
        <mxCell id="oHr5Q5GF4CuMxhJSvQlE-96" value="PK,FK1" style="shape=partialRectangle;fontStyle=1;top=0;left=0;bottom=0;html=1;fillColor=none;align=left;verticalAlign=middle;spacingLeft=4;spacingRight=4;whiteSpace=wrap;overflow=hidden;rotatable=0;points=[];portConstraint=eastwest;part=1;fontSize=16;" vertex="1" connectable="0" parent="oHr5Q5GF4CuMxhJSvQlE-95">
          <mxGeometry width="56" height="30" as="geometry" />
        </mxCell>
        <mxCell id="oHr5Q5GF4CuMxhJSvQlE-97" value="row 2" style="shape=partialRectangle;top=0;left=0;right=0;bottom=1;html=1;align=left;verticalAlign=middle;fillColor=none;spacingLeft=60;spacingRight=4;whiteSpace=wrap;overflow=hidden;rotatable=0;points=[[0,0.5],[1,0.5]];portConstraint=eastwest;dropTarget=0;fontStyle=5;fontSize=16;" vertex="1" parent="oHr5Q5GF4CuMxhJSvQlE-94">
          <mxGeometry y="56" width="190" height="30" as="geometry" />
        </mxCell>
        <mxCell id="oHr5Q5GF4CuMxhJSvQlE-98" value="PK,FK2" style="shape=partialRectangle;fontStyle=1;top=0;left=0;bottom=0;html=1;fillColor=none;align=left;verticalAlign=middle;spacingLeft=4;spacingRight=4;whiteSpace=wrap;overflow=hidden;rotatable=0;points=[];portConstraint=eastwest;part=1;fontSize=16;" vertex="1" connectable="0" parent="oHr5Q5GF4CuMxhJSvQlE-97">
          <mxGeometry width="56" height="30" as="geometry" />
        </mxCell>
        <mxCell id="oHr5Q5GF4CuMxhJSvQlE-99" value="area&lt;br&gt;population&lt;br&gt;neighborhood&lt;br&gt;" style="shape=partialRectangle;top=0;left=0;right=0;bottom=0;html=1;align=left;verticalAlign=top;fillColor=none;spacingLeft=60;spacingRight=4;whiteSpace=wrap;overflow=hidden;rotatable=0;points=[[0,0.5],[1,0.5]];portConstraint=eastwest;dropTarget=0;fontSize=16;" vertex="1" parent="oHr5Q5GF4CuMxhJSvQlE-94">
          <mxGeometry y="86" width="190" height="74" as="geometry" />
        </mxCell>
        <mxCell id="oHr5Q5GF4CuMxhJSvQlE-100" value="" style="shape=partialRectangle;top=0;left=0;bottom=0;html=1;fillColor=none;align=left;verticalAlign=top;spacingLeft=4;spacingRight=4;whiteSpace=wrap;overflow=hidden;rotatable=0;points=[];portConstraint=eastwest;part=1;fontSize=16;" vertex="1" connectable="0" parent="oHr5Q5GF4CuMxhJSvQlE-99">
          <mxGeometry width="56" height="74.00000000000001" as="geometry" />
        </mxCell>
        <mxCell id="oHr5Q5GF4CuMxhJSvQlE-101" value="" style="edgeStyle=orthogonalEdgeStyle;html=1;endArrow=ERoneToMany;startArrow=ERmandOne;labelBackgroundColor=none;fontFamily=Verdana;fontSize=14;entryX=0;entryY=0.5;exitX=0;exitY=0.5;rounded=0;" edge="1" parent="1" source="oHr5Q5GF4CuMxhJSvQlE-66" target="oHr5Q5GF4CuMxhJSvQlE-52">
          <mxGeometry width="100" height="100" relative="1" as="geometry">
            <mxPoint x="170" y="690" as="sourcePoint" />
            <mxPoint x="270" y="590" as="targetPoint" />
            <Array as="points">
              <mxPoint x="320" y="661" />
              <mxPoint x="320" y="499" />
            </Array>
          </mxGeometry>
        </mxCell>
        <mxCell id="oHr5Q5GF4CuMxhJSvQlE-102" value="" style="edgeStyle=orthogonalEdgeStyle;html=1;endArrow=ERzeroToMany;endFill=1;startArrow=ERzeroToMany;labelBackgroundColor=none;fontFamily=Verdana;fontSize=14;entryX=0;entryY=0.5;exitX=0;exitY=0.5;rounded=0;" edge="1" parent="1" source="oHr5Q5GF4CuMxhJSvQlE-95" target="oHr5Q5GF4CuMxhJSvQlE-72">
          <mxGeometry width="100" height="100" relative="1" as="geometry">
            <mxPoint x="190" y="910" as="sourcePoint" />
            <mxPoint x="290" y="810" as="targetPoint" />
            <Array as="points">
              <mxPoint x="320" y="881" />
              <mxPoint x="320" y="741" />
            </Array>
          </mxGeometry>
        </mxCell>
        <mxCell id="oHr5Q5GF4CuMxhJSvQlE-103" value="" style="edgeStyle=orthogonalEdgeStyle;html=1;endArrow=ERmany;startArrow=ERmany;labelBackgroundColor=none;fontFamily=Verdana;fontSize=14;entryX=1;entryY=0.5;exitX=0;exitY=0.383;exitPerimeter=0;rounded=0;" edge="1" parent="1" source="oHr5Q5GF4CuMxhJSvQlE-57" target="oHr5Q5GF4CuMxhJSvQlE-48">
          <mxGeometry width="100" height="100" relative="1" as="geometry">
            <mxPoint x="630" y="480" as="sourcePoint" />
            <mxPoint x="650" y="570" as="targetPoint" />
            <Array as="points">
              <mxPoint x="580" y="480" />
              <mxPoint x="580" y="441" />
            </Array>
          </mxGeometry>
        </mxCell>
        <mxCell id="oHr5Q5GF4CuMxhJSvQlE-104" value="" style="edgeStyle=orthogonalEdgeStyle;html=1;endArrow=ERzeroToMany;startArrow=ERmandOne;labelBackgroundColor=none;fontFamily=Verdana;fontSize=14;entryX=0;entryY=0.308;entryPerimeter=0;exitX=0;exitY=0.5;rounded=0;" edge="1" parent="1" source="oHr5Q5GF4CuMxhJSvQlE-77" target="oHr5Q5GF4CuMxhJSvQlE-61">
          <mxGeometry width="100" height="100" relative="1" as="geometry">
            <mxPoint x="540" y="680" as="sourcePoint" />
            <mxPoint x="640" y="580" as="targetPoint" />
            <Array as="points">
              <mxPoint x="610" y="710" />
              <mxPoint x="610" y="530" />
            </Array>
          </mxGeometry>
        </mxCell>
        <mxCell id="oHr5Q5GF4CuMxhJSvQlE-105" value="" style="edgeStyle=entityRelationEdgeStyle;html=1;endArrow=ERzeroToOne;startArrow=ERmandOne;labelBackgroundColor=none;fontFamily=Verdana;fontSize=14;exitX=1;exitY=0.5;entryX=0;entryY=0.5;rounded=0;" edge="1" parent="1" source="oHr5Q5GF4CuMxhJSvQlE-95" target="oHr5Q5GF4CuMxhJSvQlE-81">
          <mxGeometry width="100" height="100" relative="1" as="geometry">
            <mxPoint x="670" y="980" as="sourcePoint" />
            <mxPoint x="770" y="880" as="targetPoint" />
          </mxGeometry>
        </mxCell>
        <mxCell id="oHr5Q5GF4CuMxhJSvQlE-106" value="" style="edgeStyle=entityRelationEdgeStyle;html=1;endArrow=ERzeroToMany;startArrow=ERzeroToOne;labelBackgroundColor=none;fontFamily=Verdana;fontSize=14;entryX=0;entryY=0.5;exitX=1;exitY=0.5;rounded=0;" edge="1" parent="1" source="oHr5Q5GF4CuMxhJSvQlE-77" target="oHr5Q5GF4CuMxhJSvQlE-88">
          <mxGeometry width="100" height="100" relative="1" as="geometry">
            <mxPoint x="920" y="860" as="sourcePoint" />
            <mxPoint x="1020" y="760" as="targetPoint" />
          </mxGeometry>
        </mxCell>
        <mxCell id="oHr5Q5GF4CuMxhJSvQlE-107" value="Technician" style="swimlane;html=1;fontStyle=0;childLayout=stackLayout;horizontal=1;startSize=26;fillColor=#e0e0e0;horizontalStack=0;resizeParent=1;resizeLast=0;collapsible=1;marginBottom=0;swimlaneFillColor=#ffffff;align=center;rounded=0;shadow=0;comic=0;labelBackgroundColor=none;strokeWidth=1;fontFamily=Verdana;fontSize=14" vertex="1" parent="1">
          <mxGeometry x="1370" y="910" width="160" height="112" as="geometry" />
        </mxCell>
        <mxCell id="oHr5Q5GF4CuMxhJSvQlE-108" value="row 1" style="shape=partialRectangle;top=0;left=0;right=0;bottom=0;html=1;align=left;verticalAlign=middle;fillColor=none;spacingLeft=60;spacingRight=4;whiteSpace=wrap;overflow=hidden;rotatable=0;points=[[0,0.5],[1,0.5]];portConstraint=eastwest;dropTarget=0;fontStyle=5;fontSize=16;" vertex="1" parent="oHr5Q5GF4CuMxhJSvQlE-107">
          <mxGeometry y="26" width="160" height="30" as="geometry" />
        </mxCell>
        <mxCell id="oHr5Q5GF4CuMxhJSvQlE-109" value="PK,FK1" style="shape=partialRectangle;fontStyle=1;top=0;left=0;bottom=0;html=1;fillColor=none;align=left;verticalAlign=middle;spacingLeft=4;spacingRight=4;whiteSpace=wrap;overflow=hidden;rotatable=0;points=[];portConstraint=eastwest;part=1;fontSize=16;" vertex="1" connectable="0" parent="oHr5Q5GF4CuMxhJSvQlE-108">
          <mxGeometry width="56" height="30" as="geometry" />
        </mxCell>
        <mxCell id="oHr5Q5GF4CuMxhJSvQlE-110" value="row 2" style="shape=partialRectangle;top=0;left=0;right=0;bottom=1;html=1;align=left;verticalAlign=middle;fillColor=none;spacingLeft=60;spacingRight=4;whiteSpace=wrap;overflow=hidden;rotatable=0;points=[[0,0.5],[1,0.5]];portConstraint=eastwest;dropTarget=0;fontStyle=5;fontSize=16;" vertex="1" parent="oHr5Q5GF4CuMxhJSvQlE-107">
          <mxGeometry y="56" width="160" height="30" as="geometry" />
        </mxCell>
        <mxCell id="oHr5Q5GF4CuMxhJSvQlE-111" value="PK,FK2" style="shape=partialRectangle;fontStyle=1;top=0;left=0;bottom=0;html=1;fillColor=none;align=left;verticalAlign=middle;spacingLeft=4;spacingRight=4;whiteSpace=wrap;overflow=hidden;rotatable=0;points=[];portConstraint=eastwest;part=1;fontSize=16;" vertex="1" connectable="0" parent="oHr5Q5GF4CuMxhJSvQlE-110">
          <mxGeometry width="56" height="30" as="geometry" />
        </mxCell>
        <mxCell id="oHr5Q5GF4CuMxhJSvQlE-112" value="certification" style="shape=partialRectangle;top=0;left=0;right=0;bottom=0;html=1;align=left;verticalAlign=top;fillColor=none;spacingLeft=60;spacingRight=4;whiteSpace=wrap;overflow=hidden;rotatable=0;points=[[0,0.5],[1,0.5]];portConstraint=eastwest;dropTarget=0;fontSize=16;" vertex="1" parent="oHr5Q5GF4CuMxhJSvQlE-107">
          <mxGeometry y="86" width="160" height="26" as="geometry" />
        </mxCell>
        <mxCell id="oHr5Q5GF4CuMxhJSvQlE-113" value="" style="shape=partialRectangle;top=0;left=0;bottom=0;html=1;fillColor=none;align=left;verticalAlign=top;spacingLeft=4;spacingRight=4;whiteSpace=wrap;overflow=hidden;rotatable=0;points=[];portConstraint=eastwest;part=1;fontSize=16;" vertex="1" connectable="0" parent="oHr5Q5GF4CuMxhJSvQlE-112">
          <mxGeometry width="56" height="26" as="geometry" />
        </mxCell>
        <mxCell id="oHr5Q5GF4CuMxhJSvQlE-114" value="engineer" style="swimlane;html=1;fontStyle=0;childLayout=stackLayout;horizontal=1;startSize=26;fillColor=#e0e0e0;horizontalStack=0;resizeParent=1;resizeLast=0;collapsible=1;marginBottom=0;swimlaneFillColor=#ffffff;align=center;rounded=0;shadow=0;comic=0;labelBackgroundColor=none;strokeWidth=1;fontFamily=Verdana;fontSize=14" vertex="1" parent="1">
          <mxGeometry x="1230" y="1310" width="160" height="112" as="geometry" />
        </mxCell>
        <mxCell id="oHr5Q5GF4CuMxhJSvQlE-115" value="row 1" style="shape=partialRectangle;top=0;left=0;right=0;bottom=0;html=1;align=left;verticalAlign=middle;fillColor=none;spacingLeft=60;spacingRight=4;whiteSpace=wrap;overflow=hidden;rotatable=0;points=[[0,0.5],[1,0.5]];portConstraint=eastwest;dropTarget=0;fontStyle=5;fontSize=16;" vertex="1" parent="oHr5Q5GF4CuMxhJSvQlE-114">
          <mxGeometry y="26" width="160" height="30" as="geometry" />
        </mxCell>
        <mxCell id="oHr5Q5GF4CuMxhJSvQlE-116" value="PK,FK1" style="shape=partialRectangle;fontStyle=1;top=0;left=0;bottom=0;html=1;fillColor=none;align=left;verticalAlign=middle;spacingLeft=4;spacingRight=4;whiteSpace=wrap;overflow=hidden;rotatable=0;points=[];portConstraint=eastwest;part=1;fontSize=16;" vertex="1" connectable="0" parent="oHr5Q5GF4CuMxhJSvQlE-115">
          <mxGeometry width="56" height="30" as="geometry" />
        </mxCell>
        <mxCell id="oHr5Q5GF4CuMxhJSvQlE-117" value="row 2" style="shape=partialRectangle;top=0;left=0;right=0;bottom=1;html=1;align=left;verticalAlign=middle;fillColor=none;spacingLeft=60;spacingRight=4;whiteSpace=wrap;overflow=hidden;rotatable=0;points=[[0,0.5],[1,0.5]];portConstraint=eastwest;dropTarget=0;fontStyle=5;fontSize=16;" vertex="1" parent="oHr5Q5GF4CuMxhJSvQlE-114">
          <mxGeometry y="56" width="160" height="30" as="geometry" />
        </mxCell>
        <mxCell id="oHr5Q5GF4CuMxhJSvQlE-118" value="PK,FK2" style="shape=partialRectangle;fontStyle=1;top=0;left=0;bottom=0;html=1;fillColor=none;align=left;verticalAlign=middle;spacingLeft=4;spacingRight=4;whiteSpace=wrap;overflow=hidden;rotatable=0;points=[];portConstraint=eastwest;part=1;fontSize=16;" vertex="1" connectable="0" parent="oHr5Q5GF4CuMxhJSvQlE-117">
          <mxGeometry width="56" height="30" as="geometry" />
        </mxCell>
        <mxCell id="oHr5Q5GF4CuMxhJSvQlE-119" value="speciality" style="shape=partialRectangle;top=0;left=0;right=0;bottom=0;html=1;align=left;verticalAlign=top;fillColor=none;spacingLeft=60;spacingRight=4;whiteSpace=wrap;overflow=hidden;rotatable=0;points=[[0,0.5],[1,0.5]];portConstraint=eastwest;dropTarget=0;fontSize=16;" vertex="1" parent="oHr5Q5GF4CuMxhJSvQlE-114">
          <mxGeometry y="86" width="160" height="26" as="geometry" />
        </mxCell>
        <mxCell id="oHr5Q5GF4CuMxhJSvQlE-120" value="" style="shape=partialRectangle;top=0;left=0;bottom=0;html=1;fillColor=none;align=left;verticalAlign=top;spacingLeft=4;spacingRight=4;whiteSpace=wrap;overflow=hidden;rotatable=0;points=[];portConstraint=eastwest;part=1;fontSize=16;" vertex="1" connectable="0" parent="oHr5Q5GF4CuMxhJSvQlE-119">
          <mxGeometry width="56" height="26" as="geometry" />
        </mxCell>
        <mxCell id="oHr5Q5GF4CuMxhJSvQlE-121" value="" style="edgeStyle=entityRelationEdgeStyle;html=1;endArrow=ERzeroToMany;startArrow=ERzeroToOne;labelBackgroundColor=none;fontFamily=Verdana;fontSize=14;entryX=0;entryY=0.5;exitX=1;exitY=0.5;rounded=0;" edge="1" parent="1" source="oHr5Q5GF4CuMxhJSvQlE-79" target="oHr5Q5GF4CuMxhJSvQlE-108">
          <mxGeometry width="100" height="100" relative="1" as="geometry">
            <mxPoint x="819.7647058823532" y="719.5294117647059" as="sourcePoint" />
            <mxPoint x="970.3529411764707" y="585.4117647058824" as="targetPoint" />
          </mxGeometry>
        </mxCell>
        <mxCell id="oHr5Q5GF4CuMxhJSvQlE-122" value="" style="edgeStyle=entityRelationEdgeStyle;html=1;endArrow=ERzeroToMany;startArrow=ERzeroToOne;labelBackgroundColor=none;fontFamily=Verdana;fontSize=14;entryX=0;entryY=0.5;exitX=1;exitY=0.5;rounded=0;" edge="1" parent="1" source="oHr5Q5GF4CuMxhJSvQlE-83" target="oHr5Q5GF4CuMxhJSvQlE-117">
          <mxGeometry width="100" height="100" relative="1" as="geometry">
            <mxPoint x="829.7647058823532" y="729.5294117647059" as="sourcePoint" />
            <mxPoint x="980.3529411764707" y="595.4117647058824" as="targetPoint" />
          </mxGeometry>
        </mxCell>
        <mxCell id="oHr5Q5GF4CuMxhJSvQlE-123" value="department" style="swimlane;html=1;fontStyle=0;childLayout=stackLayout;horizontal=1;startSize=26;fillColor=#e0e0e0;horizontalStack=0;resizeParent=1;resizeLast=0;collapsible=1;marginBottom=0;swimlaneFillColor=#ffffff;align=center;rounded=0;shadow=0;comic=0;labelBackgroundColor=none;strokeWidth=1;fontFamily=Verdana;fontSize=14" vertex="1" parent="1">
          <mxGeometry x="80" y="340" width="190" height="170" as="geometry" />
        </mxCell>
        <mxCell id="oHr5Q5GF4CuMxhJSvQlE-124" value="code&lt;br&gt;" style="shape=partialRectangle;top=0;left=0;right=0;bottom=1;html=1;align=left;verticalAlign=middle;fillColor=none;spacingLeft=34;spacingRight=4;whiteSpace=wrap;overflow=hidden;rotatable=0;points=[[0,0.5],[1,0.5]];portConstraint=eastwest;dropTarget=0;fontStyle=5;fontSize=16;" vertex="1" parent="oHr5Q5GF4CuMxhJSvQlE-123">
          <mxGeometry y="26" width="190" height="54" as="geometry" />
        </mxCell>
        <mxCell id="oHr5Q5GF4CuMxhJSvQlE-125" value="PK" style="shape=partialRectangle;top=0;left=0;bottom=0;html=1;fillColor=none;align=left;verticalAlign=middle;spacingLeft=4;spacingRight=4;whiteSpace=wrap;overflow=hidden;rotatable=0;points=[];portConstraint=eastwest;part=1;fontSize=16;" vertex="1" connectable="0" parent="oHr5Q5GF4CuMxhJSvQlE-124">
          <mxGeometry width="30" height="54" as="geometry" />
        </mxCell>
        <mxCell id="oHr5Q5GF4CuMxhJSvQlE-126" value="name" style="shape=partialRectangle;top=0;left=0;right=0;bottom=0;html=1;align=left;verticalAlign=top;fillColor=none;spacingLeft=34;spacingRight=4;whiteSpace=wrap;overflow=hidden;rotatable=0;points=[[0,0.5],[1,0.5]];portConstraint=eastwest;dropTarget=0;fontSize=16;" vertex="1" parent="oHr5Q5GF4CuMxhJSvQlE-123">
          <mxGeometry y="80" width="190" height="26" as="geometry" />
        </mxCell>
        <mxCell id="oHr5Q5GF4CuMxhJSvQlE-127" value="" style="shape=partialRectangle;top=0;left=0;bottom=0;html=1;fillColor=none;align=left;verticalAlign=top;spacingLeft=4;spacingRight=4;whiteSpace=wrap;overflow=hidden;rotatable=0;points=[];portConstraint=eastwest;part=1;fontSize=16;" vertex="1" connectable="0" parent="oHr5Q5GF4CuMxhJSvQlE-126">
          <mxGeometry width="30" height="26" as="geometry" />
        </mxCell>
        <mxCell id="oHr5Q5GF4CuMxhJSvQlE-128" value="location&lt;br&gt;start date" style="shape=partialRectangle;top=0;left=0;right=0;bottom=0;html=1;align=left;verticalAlign=top;fillColor=none;spacingLeft=34;spacingRight=4;whiteSpace=wrap;overflow=hidden;rotatable=0;points=[[0,0.5],[1,0.5]];portConstraint=eastwest;dropTarget=0;fontSize=16;" vertex="1" parent="oHr5Q5GF4CuMxhJSvQlE-123">
          <mxGeometry y="106" width="190" height="64" as="geometry" />
        </mxCell>
        <mxCell id="oHr5Q5GF4CuMxhJSvQlE-129" value="" style="shape=partialRectangle;top=0;left=0;bottom=0;html=1;fillColor=none;align=left;verticalAlign=top;spacingLeft=4;spacingRight=4;whiteSpace=wrap;overflow=hidden;rotatable=0;points=[];portConstraint=eastwest;part=1;fontSize=16;" vertex="1" connectable="0" parent="oHr5Q5GF4CuMxhJSvQlE-128">
          <mxGeometry width="30" height="64" as="geometry" />
        </mxCell>
        <mxCell id="oHr5Q5GF4CuMxhJSvQlE-134" value="" style="edgeStyle=orthogonalEdgeStyle;html=1;endArrow=ERzeroToOne;endFill=1;labelBackgroundColor=none;fontFamily=Verdana;fontSize=14;entryX=0;entryY=0.5;exitX=1;exitY=0.5;rounded=0;" edge="1" parent="1" source="oHr5Q5GF4CuMxhJSvQlE-124" target="oHr5Q5GF4CuMxhJSvQlE-48">
          <mxGeometry width="100" height="100" relative="1" as="geometry">
            <mxPoint x="140" y="560" as="sourcePoint" />
            <mxPoint x="240" y="460" as="targetPoint" />
            <Array as="points">
              <mxPoint x="300" y="659" />
              <mxPoint x="300" y="441" />
            </Array>
          </mxGeometry>
        </mxCell>
        <mxCell id="oHr5Q5GF4CuMxhJSvQlE-135" value="" style="edgeStyle=orthogonalEdgeStyle;html=1;endArrow=ERzeroToOne;endFill=1;labelBackgroundColor=none;fontFamily=Verdana;fontSize=14;entryX=0;entryY=0.5;exitX=1;exitY=0.5;rounded=0;" edge="1" parent="1" target="oHr5Q5GF4CuMxhJSvQlE-99">
          <mxGeometry width="100" height="100" relative="1" as="geometry">
            <mxPoint x="270" y="491" as="sourcePoint" />
            <mxPoint x="370.3529411764707" y="451.2941176470589" as="targetPoint" />
            <Array as="points">
              <mxPoint x="290" y="739" />
              <mxPoint x="290" y="939" />
            </Array>
          </mxGeometry>
        </mxCell>
        <mxCell id="oHr5Q5GF4CuMxhJSvQlE-138" value="" style="edgeStyle=none;curved=1;rounded=0;orthogonalLoop=1;jettySize=auto;html=1;fontSize=12;endArrow=open;startSize=14;endSize=14;sourcePerimeterSpacing=8;targetPerimeterSpacing=8;" edge="1" parent="1" source="oHr5Q5GF4CuMxhJSvQlE-136" target="oHr5Q5GF4CuMxhJSvQlE-79">
          <mxGeometry relative="1" as="geometry" />
        </mxCell>
        <mxCell id="oHr5Q5GF4CuMxhJSvQlE-152" value="Hourly_employee" style="swimlane;html=1;fontStyle=0;childLayout=stackLayout;horizontal=1;startSize=26;fillColor=#e0e0e0;horizontalStack=0;resizeParent=1;resizeLast=0;collapsible=1;marginBottom=0;swimlaneFillColor=#ffffff;align=center;rounded=0;shadow=0;comic=0;labelBackgroundColor=none;strokeWidth=1;fontFamily=Verdana;fontSize=14" vertex="1" parent="1">
          <mxGeometry x="1240" y="390" width="180" height="112" as="geometry" />
        </mxCell>
        <mxCell id="oHr5Q5GF4CuMxhJSvQlE-153" value="row 1" style="shape=partialRectangle;top=0;left=0;right=0;bottom=0;html=1;align=left;verticalAlign=middle;fillColor=none;spacingLeft=60;spacingRight=4;whiteSpace=wrap;overflow=hidden;rotatable=0;points=[[0,0.5],[1,0.5]];portConstraint=eastwest;dropTarget=0;fontStyle=5;fontSize=16;" vertex="1" parent="oHr5Q5GF4CuMxhJSvQlE-152">
          <mxGeometry y="26" width="180" height="30" as="geometry" />
        </mxCell>
        <mxCell id="oHr5Q5GF4CuMxhJSvQlE-154" value="PK,FK1" style="shape=partialRectangle;fontStyle=1;top=0;left=0;bottom=0;html=1;fillColor=none;align=left;verticalAlign=middle;spacingLeft=4;spacingRight=4;whiteSpace=wrap;overflow=hidden;rotatable=0;points=[];portConstraint=eastwest;part=1;fontSize=16;" vertex="1" connectable="0" parent="oHr5Q5GF4CuMxhJSvQlE-153">
          <mxGeometry width="56" height="30" as="geometry" />
        </mxCell>
        <mxCell id="oHr5Q5GF4CuMxhJSvQlE-155" value="row 2" style="shape=partialRectangle;top=0;left=0;right=0;bottom=1;html=1;align=left;verticalAlign=middle;fillColor=none;spacingLeft=60;spacingRight=4;whiteSpace=wrap;overflow=hidden;rotatable=0;points=[[0,0.5],[1,0.5]];portConstraint=eastwest;dropTarget=0;fontStyle=5;fontSize=16;" vertex="1" parent="oHr5Q5GF4CuMxhJSvQlE-152">
          <mxGeometry y="56" width="180" height="30" as="geometry" />
        </mxCell>
        <mxCell id="oHr5Q5GF4CuMxhJSvQlE-156" value="PK,FK2" style="shape=partialRectangle;fontStyle=1;top=0;left=0;bottom=0;html=1;fillColor=none;align=left;verticalAlign=middle;spacingLeft=4;spacingRight=4;whiteSpace=wrap;overflow=hidden;rotatable=0;points=[];portConstraint=eastwest;part=1;fontSize=16;" vertex="1" connectable="0" parent="oHr5Q5GF4CuMxhJSvQlE-155">
          <mxGeometry width="63" height="30" as="geometry" />
        </mxCell>
        <mxCell id="oHr5Q5GF4CuMxhJSvQlE-157" value="commision_rate" style="shape=partialRectangle;top=0;left=0;right=0;bottom=0;html=1;align=left;verticalAlign=top;fillColor=none;spacingLeft=60;spacingRight=4;whiteSpace=wrap;overflow=hidden;rotatable=0;points=[[0,0.5],[1,0.5]];portConstraint=eastwest;dropTarget=0;fontSize=16;" vertex="1" parent="oHr5Q5GF4CuMxhJSvQlE-152">
          <mxGeometry y="86" width="180" height="26" as="geometry" />
        </mxCell>
        <mxCell id="oHr5Q5GF4CuMxhJSvQlE-158" value="" style="shape=partialRectangle;top=0;left=0;bottom=0;html=1;fillColor=none;align=left;verticalAlign=top;spacingLeft=4;spacingRight=4;whiteSpace=wrap;overflow=hidden;rotatable=0;points=[];portConstraint=eastwest;part=1;fontSize=16;" vertex="1" connectable="0" parent="oHr5Q5GF4CuMxhJSvQlE-157">
          <mxGeometry width="56" height="26" as="geometry" />
        </mxCell>
        <mxCell id="oHr5Q5GF4CuMxhJSvQlE-159" value="salaried_employee" style="swimlane;html=1;fontStyle=0;childLayout=stackLayout;horizontal=1;startSize=26;fillColor=#e0e0e0;horizontalStack=0;resizeParent=1;resizeLast=0;collapsible=1;marginBottom=0;swimlaneFillColor=#ffffff;align=center;rounded=0;shadow=0;comic=0;labelBackgroundColor=none;strokeWidth=1;fontFamily=Verdana;fontSize=14" vertex="1" parent="1">
          <mxGeometry x="1480" y="390" width="180" height="112" as="geometry" />
        </mxCell>
        <mxCell id="oHr5Q5GF4CuMxhJSvQlE-160" value="row 1" style="shape=partialRectangle;top=0;left=0;right=0;bottom=0;html=1;align=left;verticalAlign=middle;fillColor=none;spacingLeft=60;spacingRight=4;whiteSpace=wrap;overflow=hidden;rotatable=0;points=[[0,0.5],[1,0.5]];portConstraint=eastwest;dropTarget=0;fontStyle=5;fontSize=16;" vertex="1" parent="oHr5Q5GF4CuMxhJSvQlE-159">
          <mxGeometry y="26" width="180" height="30" as="geometry" />
        </mxCell>
        <mxCell id="oHr5Q5GF4CuMxhJSvQlE-161" value="PK,FK1" style="shape=partialRectangle;fontStyle=1;top=0;left=0;bottom=0;html=1;fillColor=none;align=left;verticalAlign=middle;spacingLeft=4;spacingRight=4;whiteSpace=wrap;overflow=hidden;rotatable=0;points=[];portConstraint=eastwest;part=1;fontSize=16;" vertex="1" connectable="0" parent="oHr5Q5GF4CuMxhJSvQlE-160">
          <mxGeometry width="56" height="30" as="geometry" />
        </mxCell>
        <mxCell id="oHr5Q5GF4CuMxhJSvQlE-162" value="row 2" style="shape=partialRectangle;top=0;left=0;right=0;bottom=1;html=1;align=left;verticalAlign=middle;fillColor=none;spacingLeft=60;spacingRight=4;whiteSpace=wrap;overflow=hidden;rotatable=0;points=[[0,0.5],[1,0.5]];portConstraint=eastwest;dropTarget=0;fontStyle=5;fontSize=16;" vertex="1" parent="oHr5Q5GF4CuMxhJSvQlE-159">
          <mxGeometry y="56" width="180" height="30" as="geometry" />
        </mxCell>
        <mxCell id="oHr5Q5GF4CuMxhJSvQlE-163" value="PK,FK2" style="shape=partialRectangle;fontStyle=1;top=0;left=0;bottom=0;html=1;fillColor=none;align=left;verticalAlign=middle;spacingLeft=4;spacingRight=4;whiteSpace=wrap;overflow=hidden;rotatable=0;points=[];portConstraint=eastwest;part=1;fontSize=16;" vertex="1" connectable="0" parent="oHr5Q5GF4CuMxhJSvQlE-162">
          <mxGeometry width="63" height="30" as="geometry" />
        </mxCell>
        <mxCell id="oHr5Q5GF4CuMxhJSvQlE-164" value="commision_rate" style="shape=partialRectangle;top=0;left=0;right=0;bottom=0;html=1;align=left;verticalAlign=top;fillColor=none;spacingLeft=60;spacingRight=4;whiteSpace=wrap;overflow=hidden;rotatable=0;points=[[0,0.5],[1,0.5]];portConstraint=eastwest;dropTarget=0;fontSize=16;" vertex="1" parent="oHr5Q5GF4CuMxhJSvQlE-159">
          <mxGeometry y="86" width="180" height="26" as="geometry" />
        </mxCell>
        <mxCell id="oHr5Q5GF4CuMxhJSvQlE-165" value="" style="shape=partialRectangle;top=0;left=0;bottom=0;html=1;fillColor=none;align=left;verticalAlign=top;spacingLeft=4;spacingRight=4;whiteSpace=wrap;overflow=hidden;rotatable=0;points=[];portConstraint=eastwest;part=1;fontSize=16;" vertex="1" connectable="0" parent="oHr5Q5GF4CuMxhJSvQlE-164">
          <mxGeometry width="56" height="26" as="geometry" />
        </mxCell>
      </root>
    </mxGraphModel>
  </diagram>
</mxfile>
